<?xml version="1.0" standalone="no"?><!DOCTYPE svg PUBLIC "-//W3C//DTD SVG 1.1//EN" "http://www.w3.org/Graphics/SVG/1.1/DTD/svg11.dtd"><svg t="1617333195777" class="icon" viewBox="0 0 1145 1024" version="1.1" xmlns="http://www.w3.org/2000/svg" p-id="14158" xmlns:xlink="http://www.w3.org/1999/xlink" width="223.6328125" height="200"><defs><style type="text/css"></style></defs><path d="M1120.378118 529.94717a24.089474 24.089474 0 0 1-25.062268-23.935875V54.276067a7.039963 7.039963 0 0 0-6.681565-6.374366h-538.877171a7.039963 7.039963 0 0 0-6.681565 6.374366v158.02797a25.087868 25.087868 0 0 1-50.124537 0V54.276067A56.166105 56.166105 0 0 1 549.757114 0.004352h538.92837a56.166105 56.166105 0 0 1 56.806102 54.271715v451.632829a24.089474 24.089474 0 0 1-25.062268 23.935874z m-237.285154-6.374367a270.027382 270.027382 0 0 0-94.412305 16.767912 271.972972 271.972972 0 0 0-542.230753 15.155121 288.945683 288.945683 0 0 0 4.172778 46.284557c-10.035147-0.793596-19.225499-1.587192-29.235046-1.587192a212.094887 212.094887 0 1 0 0 423.805775h661.705326a250.494685 250.494685 0 1 0 0-500.426173z" p-id="14159"></path><path d="M1109.754174 234.72952H549.910713a23.807875 23.807875 0 0 1 0-47.59015H1109.754174a23.807875 23.807875 0 0 1 0 47.59015z m11.110341 179.199059h-268.030592a23.807875 23.807875 0 0 1 0-47.59015h268.030592a23.807875 23.807875 0 1 1 0 47.59015z m-76.134-268.798589h-81.663571a23.807875 23.807875 0 1 1 0-47.59015h81.663571a23.807875 23.807875 0 1 1 0 47.59015z m0 176.843872h-81.663571a23.807875 23.807875 0 1 1 0-47.590151h81.663571a23.807875 23.807875 0 1 1 0 47.590151z" p-id="14160"></path></svg>