<?xml version="1.0" standalone="no"?><!DOCTYPE svg PUBLIC "-//W3C//DTD SVG 1.1//EN" "http://www.w3.org/Graphics/SVG/1.1/DTD/svg11.dtd"><svg t="1618837070478" class="icon" viewBox="0 0 1024 1024" version="1.1" xmlns="http://www.w3.org/2000/svg" p-id="9169" xmlns:xlink="http://www.w3.org/1999/xlink" width="128" height="128"><defs><style type="text/css"></style></defs><path d="M896 0a128 128 0 0 1 128 128v768a128 128 0 0 1-128 128H128a128 128 0 0 1-128-128V128a128 128 0 0 1 128-128h768z m-18.048 286.72a53.184 53.184 0 0 0-75.584 0L465.92 624.448 289.92 447.744a53.312 53.312 0 0 0-75.648 0 53.888 53.888 0 0 0 0 75.904l213.888 214.72a53.248 53.248 0 0 0 75.52 0l374.272-375.808a53.824 53.824 0 0 0 0-75.84z" fill="#0EBB5B" p-id="9170"></path></svg>