<?xml version="1.0" standalone="no"?><!DOCTYPE svg PUBLIC "-//W3C//DTD SVG 1.1//EN" "http://www.w3.org/Graphics/SVG/1.1/DTD/svg11.dtd"><svg t="1622609722990" class="icon" viewBox="0 0 1024 1024" version="1.1" xmlns="http://www.w3.org/2000/svg" p-id="3329" xmlns:xlink="http://www.w3.org/1999/xlink" width="128" height="128"><defs><style type="text/css"></style></defs><path d="M551.255893 923.306667l393.813334-213.333334V317.013333l-393.813334 143.786667zM512.00256 391.253333l429.653333-156.16L512.00256 78.506667 82.349227 235.093333z m512-154.88v472.746667a77.226667 77.226667 0 0 1-11.093333 39.68 78.933333 78.933333 0 0 1-30.293334 29.013333l-433.066666 236.373334a76.8 76.8 0 0 1-75.093334 0L42.669227 777.813333a82.346667 82.346667 0 0 1-30.293334-29.013333 77.226667 77.226667 0 0 1-12.373333-39.68V236.373333a77.653333 77.653333 0 0 1 14.08-45.226666 75.52 75.52 0 0 1 37.546667-28.586667L484.695893 4.693333a80.64 80.64 0 0 1 54.186667 0l433.493333 157.866667a77.226667 77.226667 0 0 1 37.12 28.586667A75.093333 75.093333 0 0 1 1024.00256 236.373333z" p-id="3330"></path></svg>