<?xml version="1.0" standalone="no"?><!DOCTYPE svg PUBLIC "-//W3C//DTD SVG 1.1//EN" "http://www.w3.org/Graphics/SVG/1.1/DTD/svg11.dtd"><svg t="1623154143419" class="icon" viewBox="0 0 1026 1024" version="1.1" xmlns="http://www.w3.org/2000/svg" p-id="8051" xmlns:xlink="http://www.w3.org/1999/xlink" width="128.25" height="128"><defs><style type="text/css"></style></defs><path d="M1026 334.6c0-43.5-35.2-78.7-78.7-78.7s-78.7 35.2-78.7 78.7c0 10.1 1.9 19.8 5.4 28.7L706.8 663.6 399 288.3c-9.9-12-24.8-18.8-40.3-18.3-15.6 0.5-30 8.3-39 20.9L73.2 636.5C32.3 639.3 0 673.3 0 715c0 43.5 35.2 78.7 78.7 78.7s78.7-35.2 78.7-78.7c0-7.1-0.9-13.9-2.7-20.4l208.4-292.3 313 381.6c9.5 11.6 23.8 18.3 38.7 18.3 1.5 0 3-0.1 4.5-0.2 16.5-1.5 31.2-11 39.2-25.5l203-364.4c36.6-6.7 64.5-38.8 64.5-77.5z" p-id="8052"></path></svg>