<?xml version="1.0" standalone="no"?><!DOCTYPE svg PUBLIC "-//W3C//DTD SVG 1.1//EN" "http://www.w3.org/Graphics/SVG/1.1/DTD/svg11.dtd"><svg t="1622609818323" class="icon" viewBox="0 0 1024 1024" version="1.1" xmlns="http://www.w3.org/2000/svg" p-id="5591" xmlns:xlink="http://www.w3.org/1999/xlink" width="128" height="128"><defs><style type="text/css"></style></defs><path d="M460.8 558.08V921.6H358.4v-363.52c15.36 0 35.84 5.12 51.2 5.12 15.36 0 35.84-5.12 51.2-5.12z m435.2 56.32c5.12 0 10.24 5.12 10.24 10.24s0 5.12-5.12 5.12l-76.8 76.8 117.76 117.76c5.12 5.12 5.12 10.24 0 15.36l-56.32 56.32c-5.12 5.12-10.24 5.12-15.36 0l-117.76-117.76-76.8 76.8c-5.12 5.12-10.24 5.12-15.36 0l-5.12-5.12v-220.16c0-5.12 5.12-10.24 10.24-10.24h230.4zM409.6 256c71.68 0 133.12 56.32 133.12 128S481.28 512 409.6 512 276.48 455.68 276.48 384 337.92 256 409.6 256z m512 102.4v102.4h-348.16c10.24-25.6 15.36-51.2 15.36-76.8V358.4H921.6zM230.4 358.4v25.6c0 25.6 5.12 51.2 15.36 76.8H51.2V358.4h179.2zM460.8 51.2v158.72c-15.36 0-35.84-5.12-51.2-5.12-15.36 0-35.84 5.12-51.2 5.12V51.2h102.4z" p-id="5592"></path></svg>