<?xml version="1.0" standalone="no"?><!DOCTYPE svg PUBLIC "-//W3C//DTD SVG 1.1//EN" "http://www.w3.org/Graphics/SVG/1.1/DTD/svg11.dtd"><svg t="1622609842330" class="icon" viewBox="0 0 1024 1024" version="1.1" xmlns="http://www.w3.org/2000/svg" p-id="5875" xmlns:xlink="http://www.w3.org/1999/xlink" width="128" height="128"><defs><style type="text/css"></style></defs><path d="M503.580444 33.393778a27.306667 27.306667 0 0 1 21.845334 0.113778l431.331555 190.691555a27.306667 27.306667 0 0 1 16.270223 25.031111v517.404445a27.306667 27.306667 0 0 1-15.928889 24.860444l-429.454223 196.266667a27.306667 27.306667 0 0 1-22.357333 0.170666l-433.265778-191.146666a27.306667 27.306667 0 0 1-16.270222-24.917334V244.167111a27.306667 27.306667 0 0 1 16.497778-25.031111zM110.364444 287.971556v466.033777l378.254223 166.798223V724.764444L285.013333 635.505778a27.306667 27.306667 0 0 1-15.928889-20.48l-0.455111-4.551111v-252.586667L110.307556 287.914667z m808.106667 1.137777l-152.234667 65.422223v256a27.306667 27.306667 0 0 1-12.344888 22.755555l-4.039112 2.275556-206.563555 89.770666-0.056889 195.185778 375.239111-171.463111V289.109333z m-401.635555 255.431111l-152.519112 65.991112 152.348445 66.844444 152.462222-66.446222-152.291555-66.446222z m26.453333-254.122666v205.994666l168.334222 73.386667V363.349333l-168.391111-72.988444z m-54.613333 0l-165.376 72.817778v205.539555L488.618667 497.208889V290.360889z m25.6-202.126222L149.048889 245.418667l153.031111 67.527111 202.467556-89.144889a27.306667 27.306667 0 0 1 17.521777-1.536l4.323556 1.479111 202.126222 87.438222 147.114667-63.146666-361.415111-159.744z" p-id="5876"></path></svg>