<?xml version="1.0" standalone="no"?><!DOCTYPE svg PUBLIC "-//W3C//DTD SVG 1.1//EN" "http://www.w3.org/Graphics/SVG/1.1/DTD/svg11.dtd"><svg t="1622174207360" class="icon" viewBox="0 0 1024 1024" version="1.1" xmlns="http://www.w3.org/2000/svg" p-id="5623" xmlns:xlink="http://www.w3.org/1999/xlink" width="128" height="128"><defs><style type="text/css"></style></defs><path d="M411.9 480.7H256.4c-38.7 0-70.2-31.5-70.2-70.2V255c0-38.7 31.5-70.2 70.2-70.2h155.5c38.7 0 70.2 31.5 70.2 70.2v155.5c0 38.7-31.5 70.2-70.2 70.2zM256.4 224.8c-16.7 0-30.2 13.5-30.2 30.2v155.5c0 16.7 13.5 30.2 30.2 30.2h155.5c16.7 0 30.2-13.5 30.2-30.2V255c0-16.7-13.5-30.2-30.2-30.2H256.4zM770.2 479.4H615.5c-38.6 0-69.9-31.4-69.9-69.9V254.7c0-38.6 31.4-69.9 69.9-69.9h154.7c38.6 0 69.9 31.4 69.9 69.9v154.7c0 38.6-31.3 70-69.9 70zM615.5 224.8c-16.5 0-29.9 13.4-29.9 29.9v154.7c0 16.5 13.4 29.9 29.9 29.9h154.7c16.5 0 29.9-13.4 29.9-29.9V254.7c0-16.5-13.4-29.9-29.9-29.9H615.5zM411.9 839.1H256.4c-38.7 0-70.2-31.5-70.2-70.2V613.4c0-38.7 31.5-70.2 70.2-70.2h155.5c38.7 0 70.2 31.5 70.2 70.2v155.5c0 38.7-31.5 70.2-70.2 70.2zM256.4 583.2c-16.7 0-30.2 13.5-30.2 30.2v155.5c0 16.7 13.5 30.2 30.2 30.2h155.5c16.7 0 30.2-13.5 30.2-30.2V613.4c0-16.7-13.5-30.2-30.2-30.2H256.4zM770.2 837.8H615.5c-38.6 0-69.9-31.4-69.9-69.9V613.1c0-38.6 31.4-69.9 69.9-69.9h154.7c38.6 0 69.9 31.4 69.9 69.9v154.7c0 38.6-31.3 70-69.9 70zM615.5 583.2c-16.5 0-29.9 13.4-29.9 29.9v154.7c0 16.5 13.4 29.9 29.9 29.9h154.7c16.5 0 29.9-13.4 29.9-29.9V613.1c0-16.5-13.4-29.9-29.9-29.9H615.5z" p-id="5624"></path><path d="M457.6 312.1h108v40h-108zM457.6 671.1h108v40h-108zM314.1 457.2h40v108h-40zM672.9 457.2h40v108h-40z" p-id="5625"></path></svg>