<?xml version="1.0" standalone="no"?><!DOCTYPE svg PUBLIC "-//W3C//DTD SVG 1.1//EN" "http://www.w3.org/Graphics/SVG/1.1/DTD/svg11.dtd"><svg t="1622174270031" class="icon" viewBox="0 0 1092 1024" version="1.1" xmlns="http://www.w3.org/2000/svg" p-id="6621" xmlns:xlink="http://www.w3.org/1999/xlink" width="136.5" height="128"><defs><style type="text/css"></style></defs><path d="M967.133867 927.266133H125.610667V96.733867h841.591466v830.532266h-0.068266zM202.069333 851.7632h688.469334V172.2368H202.1376v679.5264z" p-id="6622"></path><path d="M21.981867 134.5536c0 73.045333 59.938133 132.164267 133.802666 132.164267 74.001067 0 133.9392-59.1872 133.9392-132.164267S229.7856 2.389333 155.8528 2.389333C81.92 2.389333 21.981867 61.576533 21.981867 134.5536zM802.542933 134.5536c0 73.045333 59.938133 132.164267 133.870934 132.164267 73.9328 0 133.9392-59.1872 133.9392-132.164267S1010.346667 2.389333 936.413867 2.389333s-133.870933 59.1872-133.870934 132.164267zM21.981867 889.4464c0 72.977067 59.938133 132.164267 133.802666 132.164267 74.001067 0 133.9392-59.1872 133.9392-132.164267 0-73.045333-59.938133-132.164267-133.870933-132.164267-73.9328 0-133.870933 59.1872-133.870933 132.164267zM802.542933 889.4464c0 72.977067 59.938133 132.164267 133.870934 132.164267 73.9328 0 133.9392-59.1872 133.9392-132.164267 0-73.045333-60.0064-132.164267-133.9392-132.164267s-133.870933 59.1872-133.870934 132.164267zM136.3968 485.376l382.498133-377.514667 54.0672 53.384534L190.464 538.624z" p-id="6623"></path><path d="M151.825067 736.119467L788.48 107.861333l54.0672 53.384534-636.586667 628.189866zM289.450667 862.890667l612.215466-604.023467 54.0672 53.316267-612.1472 604.091733zM547.84 872.789333l358.4-353.621333 53.998933 53.384533-358.331733 353.621334z" p-id="6624"></path></svg>