<?xml version="1.0" standalone="no"?><!DOCTYPE svg PUBLIC "-//W3C//DTD SVG 1.1//EN" "http://www.w3.org/Graphics/SVG/1.1/DTD/svg11.dtd"><svg t="1617331261710" class="icon" viewBox="0 0 1024 1024" version="1.1" xmlns="http://www.w3.org/2000/svg" p-id="4063" xmlns:xlink="http://www.w3.org/1999/xlink" width="200" height="200"><defs><style type="text/css"></style></defs><path d="M764.296 740.093c-5.966 0-11.86 0.238-17.675 0.695 0.007 0.383 0.017 0.77 0.017 1.15 0 49.833-24.093 96.423-67.85 131.186-25.177 20.004-55.176 34.686-87.858 43.345C610.292 978.234 680.56 1024 764.29 1024c98.675 0 178.668-63.551 178.668-141.95 0-78.401-79.993-141.957-178.662-141.957z m0 0" p-id="4064"></path><path d="M857.274 307.901c-5.475-30.18-43.05-53.603-92.774-53.603-33.392 0-61.172 10.625-77.567 26.707l83.213 435.766c94.124 1.744 172.226 57.204 189.896 130.147h0.159L857.274 307.9z m0 0M277.36 741.939c0-0.381 0.017-0.768 0.017-1.157a228.334 228.334 0 0 0-17.669-0.689c-98.673 0-178.662 63.556-178.662 141.955 0 78.402 79.989 141.947 178.662 141.947 83.731 0 153.998-45.766 173.362-107.53-32.677-8.66-62.68-23.335-87.853-43.345-43.757-34.765-67.857-81.35-67.857-131.181z m0 0" p-id="4065"></path><path d="M253.86 716.772l83.212-435.765C320.68 264.924 292.897 254.3 259.5 254.3c-49.717 0-87.293 23.421-92.774 53.603L63.799 846.919h0.157c17.67-72.943 95.779-128.402 189.904-130.147z m0 0M719.524 734.472c0.006-0.314 0.017-0.633 0.017-0.949 0-7.463-0.631-14.807-1.835-22.008-9.096-54.48-51.463-100.606-110.35-125.068-28.887-11.997-61.736-18.792-96.585-18.792-41.894 0-80.903 9.813-113.595 26.689-50.95 26.308-86.544 69.788-93.791 120.118a133.272 133.272 0 0 0-1.383 19.068c0 1.608 0.04 3.214 0.097 4.81 2.348 65.553 52.575 121.575 123.874 146.793 25.913 9.163 54.609 14.26 84.8 14.26 23.359 0 45.821-3.047 66.799-8.67 82.177-22.041 141.439-83.62 141.952-156.251z m0 0" p-id="4066"></path><path d="M282.034 692.475c12.786-52.783 54.217-97.731 110.05-124.789 35.63-17.264 77.116-27.246 120.775-27.34 35.718 0.073 69.55 6.777 99.758 18.664 64.605 25.409 112.618 74.557 126.884 133.465h0.187l-76.015-398.07-44.254-231.768C613.02 27.37 569.11 0 511.013 0c-58.1 0-101.7 27.494-108.406 62.635l-53.592 279.51-67.161 350.33h0.18z m0 0" p-id="4067"></path></svg>