<?xml version="1.0" standalone="no"?><!DOCTYPE svg PUBLIC "-//W3C//DTD SVG 1.1//EN" "http://www.w3.org/Graphics/SVG/1.1/DTD/svg11.dtd"><svg t="1625211578262" class="icon" viewBox="0 0 1024 1024" version="1.1" xmlns="http://www.w3.org/2000/svg" p-id="1846" xmlns:xlink="http://www.w3.org/1999/xlink" width="128" height="128"><defs><style type="text/css"></style></defs><path d="M838.0491070251464 90.125H185.95089297485356C133.3370539245605 90.125 90.125 133.276785949707 90.125 185.95089297485356v652.0982140502929C90.125 890.6629460754395 133.276785949707 933.875 185.95089297485356 933.875h652.0982140502929c52.674107025146476 0 95.82589297485352-43.15178594970703 95.82589297485352-95.82589297485352V185.95089297485356C933.875 133.3370539245605 890.723214050293 90.125 838.0491070251464 90.125z m38.33035702514648 747.9241070251464a38.99330392456054 38.99330392456054 0 0 1-38.390625 38.270089050292974H186.011160949707a38.93303594970703 38.93303594970703 0 0 1-38.33035702514648-38.33035702514648V186.011160949707c0-20.732142974853513 17.59821405029297-38.33035702514648 38.33035702514648-38.33035702514648h651.977678100586c20.732142974853513 0 38.390625 17.59821405029297 38.390625 38.33035702514648v651.977678100586z" p-id="1847"></path></svg>