<?xml version="1.0" standalone="no"?><!DOCTYPE svg PUBLIC "-//W3C//DTD SVG 1.1//EN" "http://www.w3.org/Graphics/SVG/1.1/DTD/svg11.dtd"><svg t="1618799691486" class="icon" viewBox="0 0 1024 1024" version="1.1" xmlns="http://www.w3.org/2000/svg" p-id="4389" xmlns:xlink="http://www.w3.org/1999/xlink" width="128" height="128"><defs><style type="text/css"></style></defs><path d="M949.765741 460.774401h-277.256642a56.886298 56.886298 0 0 0 0 113.772596h277.256642a56.886298 56.886298 0 0 0 0-113.772596z m0 209.095582h-385.904346a56.886298 56.886298 0 0 0 0 113.260107h385.904346a56.886298 56.886298 0 1 0 0-113.260107z m0 194.745885H452.138756a56.886298 56.886298 0 0 0 0 113.260107h497.626985a56.886298 56.886298 0 1 0 0-113.260107zM663.796783 204.529816A119.922466 119.922466 0 0 0 617.160269 37.458346l-41.511623-23.062013a119.409977 119.409977 0 0 0-158.871643 43.049091L325.55393 204.529816l250.094716 148.10937zM294.292091 259.366157L18.060428 744.180913l-6.14987 263.419434a15.887164 15.887164 0 0 0 24.086991 13.837207l232.157594-137.347098 281.869044-483.789777z" p-id="4390"></path></svg>