<?xml version="1.0" standalone="no"?><!DOCTYPE svg PUBLIC "-//W3C//DTD SVG 1.1//EN" "http://www.w3.org/Graphics/SVG/1.1/DTD/svg11.dtd"><svg t="1617330774453" class="icon" viewBox="0 0 1024 1024" version="1.1" xmlns="http://www.w3.org/2000/svg" p-id="6776" xmlns:xlink="http://www.w3.org/1999/xlink" width="200" height="200"><defs><style type="text/css"></style></defs><path d="M851.712 343.808v532.992H174.592V141.056H683.52l62.464-76.8H173.056a86.272 86.272 0 0 0-81.152 80.384v728.576a87.296 87.296 0 0 0 93.44 87.04H844.8a89.088 89.088 0 0 0 80.896-80.896V281.6l-74.752 62.208z m74.752-199.168a35.072 35.072 0 0 0 0-37.376A105.472 105.472 0 0 0 889.088 76.8s-31.232-18.688-49.92 6.4l-25.6 25.6 87.296 68.352 25.6-30.976z" p-id="6777"></path><path d="M608.768 375.04l-12.288 74.752c6.144 25.6 25.6 12.288 25.6 12.288l69.12-30.976a94.208 94.208 0 0 0 37.376-37.376l149.248-193.024-87.04-68.608-162.048 204.8a74.496 74.496 0 0 0-18.688 37.376zM727.296 622.592a7.424 7.424 0 0 1-6.656 7.936H309.504a7.424 7.424 0 0 1-6.656-7.936V563.2a7.424 7.424 0 0 1 6.656-7.936h411.136a7.424 7.424 0 0 1 6.656 7.936v59.648z m0 150.016a7.424 7.424 0 0 1-6.656 7.936H309.504a7.424 7.424 0 0 1-6.656-7.936v-59.648a7.424 7.424 0 0 1 6.656-7.936h411.136a7.424 7.424 0 0 1 6.656 7.936v59.648z" p-id="6778"></path></svg>